<?xml version="1.0" standalone="no"?>
<!DOCTYPE svg PUBLIC "-//W3C//DTD SVG 20010904//EN"
 "http://www.w3.org/TR/2001/REC-SVG-20010904/DTD/svg10.dtd">
<svg version="1.0" xmlns="http://www.w3.org/2000/svg"
 width="1701.000000pt" height="537.000000pt" viewBox="0 0 1701.000000 537.000000"
 preserveAspectRatio="xMidYMid meet">

<g transform="translate(0.000000,537.000000) scale(0.100000,-0.100000)"
fill="#000000" stroke="none">
<path d="M1485 4755 c-412 -75 -742 -366 -878 -775 -46 -136 -60 -225 -60
-380 -1 -219 41 -397 140 -595 110 -218 242 -370 512 -588 340 -274 507 -431
552 -518 54 -107 1 -239 -96 -239 -113 0 -199 163 -250 473 -4 26 -13 41 -29
48 -28 13 -818 -26 -847 -41 -17 -10 -19 -23 -19 -135 0 -220 51 -506 121
-683 160 -402 442 -635 854 -707 204 -35 491 -14 658 49 379 142 641 478 734
941 13 69 18 138 18 295 0 185 -2 213 -23 285 -92 319 -289 584 -587 794 -439
308 -595 465 -597 599 -1 75 44 113 108 92 46 -16 90 -72 115 -150 37 -114
-12 -106 511 -82 524 24 488 15 488 126 0 156 -44 359 -110 511 -161 366 -474
611 -867 680 -104 18 -349 18 -448 0z"/>
<path d="M9364 4756 c-368 -70 -634 -275 -804 -621 -71 -142 -112 -265 -145
-429 -44 -219 -47 -293 -42 -1121 3 -680 6 -791 20 -865 121 -608 456 -1002
936 -1100 126 -25 345 -27 482 -4 576 99 915 580 989 1404 14 165 13 395 -2
408 -18 14 -1087 53 -1111 40 -10 -5 -22 -20 -27 -34 -6 -14 -10 -161 -10
-330 l0 -306 -29 -29 c-33 -33 -50 -35 -91 -14 -20 10 -32 27 -39 53 -15 51
-15 1713 -1 1764 20 69 99 93 139 42 20 -25 21 -39 21 -233 0 -176 3 -211 18
-241 31 -63 14 -62 603 -39 468 17 536 22 547 36 15 21 16 244 1 381 -42 391
-192 729 -419 945 -138 133 -303 225 -487 274 -85 22 -123 26 -288 29 -130 2
-212 -1 -261 -10z"/>
<path d="M3664 4734 c-12 -17 -141 -690 -392 -2039 -339 -1828 -372 -2016
-360 -2042 l13 -28 501 -3 c484 -2 501 -2 518 17 14 15 29 107 72 443 41 315
59 427 71 440 14 16 36 18 183 18 126 0 170 -3 178 -13 6 -7 36 -202 67 -433
30 -230 60 -429 65 -441 5 -12 20 -25 32 -28 13 -3 239 -4 503 -3 l480 3 19
39 19 39 -384 2005 c-287 1500 -389 2011 -402 2029 l-18 23 -574 0 -575 0 -16
-26z m617 -1961 c13 -36 91 -599 87 -633 -3 -23 -7 -25 -78 -33 -84 -8 -115
-4 -123 18 -7 15 67 575 84 638 12 44 16 46 30 10z"/>
<path d="M5756 4744 c-14 -14 -16 -214 -16 -2050 0 -1384 3 -2042 10 -2055 10
-18 26 -19 465 -19 442 0 456 1 475 20 19 19 20 33 20 548 0 298 4 533 9 541
12 19 34 2 49 -37 6 -15 65 -252 132 -527 67 -275 129 -510 136 -522 l14 -23
555 0 c538 0 555 1 565 19 7 13 10 671 10 2054 0 1958 -1 2035 -18 2050 -17
15 -64 17 -470 17 l-451 0 -15 -22 c-14 -20 -16 -100 -16 -668 0 -515 -3 -650
-13 -664 -12 -16 -14 -16 -26 -2 -7 8 -91 309 -188 668 -96 359 -182 661 -190
671 -15 16 -53 17 -519 17 -444 0 -504 -2 -518 -16z"/>
<path d="M11614 4734 c-12 -17 -141 -690 -392 -2039 -339 -1828 -372 -2016
-360 -2042 l13 -28 501 -3 c484 -2 501 -2 518 17 14 15 29 107 72 443 41 315
59 427 71 440 14 16 36 18 183 18 126 0 170 -3 178 -13 6 -7 36 -202 67 -433
30 -230 60 -429 65 -441 5 -12 20 -25 32 -28 13 -3 239 -4 503 -3 l480 3 19
39 19 39 -384 2005 c-287 1500 -389 2011 -402 2029 l-18 23 -574 0 -575 0 -16
-26z m617 -1961 c13 -36 91 -599 87 -633 -3 -23 -7 -25 -78 -33 -84 -8 -115
-4 -123 18 -7 15 67 575 84 638 12 44 16 46 30 10z"/>
<path d="M13696 4744 c-14 -14 -16 -214 -16 -2050 0 -1384 3 -2042 10 -2055
10 -18 26 -19 465 -19 442 0 456 1 475 20 19 19 20 33 20 548 0 298 4 533 9
541 12 19 34 2 49 -37 6 -15 65 -252 132 -527 67 -275 129 -510 136 -522 l14
-23 555 0 c538 0 555 1 565 19 7 13 10 671 10 2054 0 1958 -1 2035 -18 2050
-17 15 -64 17 -470 17 l-451 0 -15 -22 c-14 -20 -16 -100 -16 -668 0 -515 -3
-650 -13 -664 -12 -16 -14 -16 -26 -2 -7 8 -91 309 -188 668 -96 359 -182 661
-190 671 -15 16 -53 17 -519 17 -444 0 -504 -2 -518 -16z"/>
</g>
</svg>
